<svg width="32" height="32" viewBox="0 0 32 32" fill="none" xmlns="http://www.w3.org/2000/svg">
<rect width="32" height="32" fill="rgba(0, 0, 0, 0)"/>
<path fill-rule="evenodd" clip-rule="evenodd" d="M13.9639 10.4617C13.984 10.2012 14.2012 10 14.4625 10H14.8803C15.1372 10 15.3522 10.1946 15.3778 10.4502L15.9994 16.6667L20.4142 19.1894C20.57 19.2784 20.6661 19.4441 20.6661 19.6235V20.012C20.6661 20.3417 20.3526 20.5812 20.0345 20.4944L13.7314 18.7754C13.5001 18.7123 13.3461 18.4938 13.3645 18.2547L13.9639 10.4617Z" fill="#72777A"/>
<path opacity="0.3" fill-rule="evenodd" clip-rule="evenodd" d="M8.05574 1.63693C7.79164 1.32218 7.28169 1.44265 7.18636 1.84231L5.5529 8.69045C5.47522 9.0161 5.73329 9.3246 6.06754 9.30566L13.1123 8.90645C13.5232 8.88316 13.7316 8.40113 13.467 8.08585L11.6656 5.93901C12.8305 5.54096 14.0657 5.33306 15.334 5.33306C21.5932 5.33306 26.6673 10.4072 26.6673 16.6664C26.6673 22.9256 21.5932 27.9997 15.334 27.9997C9.07476 27.9997 4.00065 22.9256 4.00065 16.6664C4.00065 15.6156 4.14294 14.5865 4.4204 13.5973L1.85283 12.8771C1.51478 14.0823 1.33398 15.3532 1.33398 16.6664C1.33398 24.3984 7.602 30.6664 15.334 30.6664C23.066 30.6664 29.334 24.3984 29.334 16.6664C29.334 8.93441 23.066 2.66639 15.334 2.66639C13.3891 2.66639 11.5369 3.06297 9.85371 3.77967L8.05574 1.63693Z" fill="#72777A"/>
</svg>
