<svg width="50" height="48" viewBox="0 0 50 48" fill="none" xmlns="http://www.w3.org/2000/svg">
<rect x="0.5" width="49" height="48" rx="24" fill="#F7F9FA"/>
<rect x="11" y="10" width="28" height="28" rx="6" fill="url(#paint0_radial_194_7344)"/>
<rect x="11" y="10" width="28" height="28" rx="6" fill="url(#paint1_radial_194_7344)"/>
<rect x="11" y="10" width="28" height="28" rx="6" fill="url(#paint2_radial_194_7344)"/>
<path d="M32 18.5C32 19.3284 31.3284 20 30.5 20C29.6716 20 29 19.3284 29 18.5C29 17.6716 29.6716 17 30.5 17C31.3284 17 32 17.6716 32 18.5Z" fill="white"/>
<path fill-rule="evenodd" clip-rule="evenodd" d="M25 29C27.7614 29 30 26.7614 30 24C30 21.2386 27.7614 19 25 19C22.2386 19 20 21.2386 20 24C20 26.7614 22.2386 29 25 29ZM25 27C26.6569 27 28 25.6569 28 24C28 22.3431 26.6569 21 25 21C23.3431 21 22 22.3431 22 24C22 25.6569 23.3431 27 25 27Z" fill="white"/>
<path fill-rule="evenodd" clip-rule="evenodd" d="M15 23.6C15 20.2397 15 18.5595 15.654 17.2761C16.2292 16.1471 17.1471 15.2292 18.2761 14.654C19.5595 14 21.2397 14 24.6 14H25.4C28.7603 14 30.4405 14 31.7239 14.654C32.8529 15.2292 33.7708 16.1471 34.346 17.2761C35 18.5595 35 20.2397 35 23.6V24.4C35 27.7603 35 29.4405 34.346 30.7239C33.7708 31.8529 32.8529 32.7708 31.7239 33.346C30.4405 34 28.7603 34 25.4 34H24.6C21.2397 34 19.5595 34 18.2761 33.346C17.1471 32.7708 16.2292 31.8529 15.654 30.7239C15 29.4405 15 27.7603 15 24.4V23.6ZM24.6 16H25.4C27.1132 16 28.2777 16.0016 29.1779 16.0751C30.0548 16.1467 30.5032 16.2766 30.816 16.436C31.5686 16.8195 32.1805 17.4314 32.564 18.184C32.7234 18.4968 32.8533 18.9452 32.9249 19.8221C32.9984 20.7223 33 21.8868 33 23.6V24.4C33 26.1132 32.9984 27.2777 32.9249 28.1779C32.8533 29.0548 32.7234 29.5032 32.564 29.816C32.1805 30.5686 31.5686 31.1805 30.816 31.564C30.5032 31.7234 30.0548 31.8533 29.1779 31.9249C28.2777 31.9984 27.1132 32 25.4 32H24.6C22.8868 32 21.7223 31.9984 20.8221 31.9249C19.9452 31.8533 19.4968 31.7234 19.184 31.564C18.4314 31.1805 17.8195 30.5686 17.436 29.816C17.2766 29.5032 17.1467 29.0548 17.0751 28.1779C17.0016 27.2777 17 26.1132 17 24.4V23.6C17 21.8868 17.0016 20.7223 17.0751 19.8221C17.1467 18.9452 17.2766 18.4968 17.436 18.184C17.8195 17.4314 18.4314 16.8195 19.184 16.436C19.4968 16.2766 19.9452 16.1467 20.8221 16.0751C21.7223 16.0016 22.8868 16 24.6 16Z" fill="white"/>
<defs>
<radialGradient id="paint0_radial_194_7344" cx="0" cy="0" r="1" gradientUnits="userSpaceOnUse" gradientTransform="translate(21 31) rotate(-55.3758) scale(25.5196)">
<stop stop-color="#B13589"/>
<stop offset="0.79309" stop-color="#C62F94"/>
<stop offset="1" stop-color="#8A3AC8"/>
</radialGradient>
<radialGradient id="paint1_radial_194_7344" cx="0" cy="0" r="1" gradientUnits="userSpaceOnUse" gradientTransform="translate(20 39) rotate(-65.1363) scale(22.5942)">
<stop stop-color="#E0E8B7"/>
<stop offset="0.444662" stop-color="#FB8A2E"/>
<stop offset="0.71474" stop-color="#E2425C"/>
<stop offset="1" stop-color="#E2425C" stop-opacity="0"/>
</radialGradient>
<radialGradient id="paint2_radial_194_7344" cx="0" cy="0" r="1" gradientUnits="userSpaceOnUse" gradientTransform="translate(9.5 11) rotate(-8.1301) scale(38.8909 8.31836)">
<stop offset="0.156701" stop-color="#406ADC"/>
<stop offset="0.467799" stop-color="#6A45BE"/>
<stop offset="1" stop-color="#6A45BE" stop-opacity="0"/>
</radialGradient>
</defs>
</svg>
