<svg width="16" height="16" viewBox="0 0 16 16" fill="none" xmlns="http://www.w3.org/2000/svg">
<path fill-rule="evenodd" clip-rule="evenodd" d="M9.93714 10.8798C9.03401 11.5819 7.89918 11.9999 6.66671 11.9999C3.72119 11.9999 1.33337 9.6121 1.33337 6.66659C1.33337 3.72107 3.72119 1.33325 6.66671 1.33325C9.61223 1.33325 12 3.72107 12 6.66659C12 7.89906 11.582 9.03389 10.8799 9.93701L14.4714 13.5285C14.7318 13.7889 14.7318 14.211 14.4714 14.4713C14.2111 14.7317 13.789 14.7317 13.5286 14.4713L9.93714 10.8798ZM10.6667 6.66659C10.6667 8.87572 8.87585 10.6666 6.66671 10.6666C4.45757 10.6666 2.66671 8.87572 2.66671 6.66659C2.66671 4.45745 4.45757 2.66659 6.66671 2.66659C8.87585 2.66659 10.6667 4.45745 10.6667 6.66659Z" fill="#FCFCFD"/>
</svg>
