<svg width="100" height="30" viewBox="0 0 100 30" fill="none" xmlns="http://www.w3.org/2000/svg">
<path d="M7.26706 30L6.96991 29.8626C7.132 29.3132 7.29408 28.7637 7.45616 28.2143L7.75332 28.3791C7.56422 28.9011 7.40214 29.4505 7.26706 30ZM8.29361 26.7857L8.02346 26.6209C8.21256 26.0989 8.42868 25.5769 8.61778 25.0549L8.88792 25.2473C8.67181 25.7418 8.48271 26.2637 8.29361 26.7857ZM9.53627 23.7088L9.26612 23.489C9.50925 22.9945 9.72536 22.5 9.99551 22.0055L10.2386 22.2253C9.99551 22.7198 9.77939 23.2143 9.53627 23.7088ZM11.3462 20.3297L10.995 19.9725C11.3732 19.3132 11.7784 18.6264 12.1837 17.9945L12.5348 18.3791C12.1026 19.011 11.7244 19.6429 11.3462 20.3297ZM67.779 18.8462C67.5629 18.4341 67.3468 17.9945 67.1307 17.5824L67.3738 17.3352C67.5899 17.7473 67.806 18.1868 68.0222 18.5989L67.779 18.8462ZM68.7786 21.3462C68.6165 20.9066 68.4544 20.467 68.2653 20.0275L68.5084 19.8077C68.6975 20.2473 68.8596 20.6868 69.0217 21.1264L68.7786 21.3462ZM69.7511 23.9011C69.589 23.4615 69.4269 23.022 69.2378 22.5824L69.4809 22.3901C69.67 22.8297 69.8321 23.2692 69.9942 23.7363L69.7511 23.9011ZM13.7505 16.4835L13.4263 16.0714C13.8585 15.467 14.2908 14.8352 14.75 14.2582L15.0472 14.6978C14.6149 15.2747 14.1827 15.8791 13.7505 16.4835ZM66.3743 16.4011C66.0771 15.8791 65.753 15.3846 65.4018 14.8901L65.6719 14.533C65.9961 15.0275 66.3203 15.5495 66.6444 16.044L66.3743 16.4011ZM64.2942 13.3791C63.997 12.8571 63.6729 12.3626 63.3217 11.8681L63.5918 11.511C63.916 12.0055 64.2402 12.5275 64.5643 13.022L64.2942 13.3791ZM16.4249 12.9945L16.1277 12.5549C16.587 12.0055 17.0732 11.456 17.5865 10.9341L17.8567 11.4011C17.3704 11.8956 16.8841 12.4451 16.4249 12.9945ZM19.3424 9.89011L19.0993 9.3956C19.6126 8.9011 20.1259 8.43407 20.6661 7.96703L20.9093 8.46154C20.342 8.92857 19.8287 9.39561 19.3424 9.89011ZM61.3766 10.1374C60.9174 9.64286 60.8093 9.50549 60.3231 9.03846L60.5932 8.54396C61.0795 9.01099 61.7008 9.64286 62.1871 10.1374H61.3766ZM22.4491 7.17033L22.233 6.64835C22.7733 6.23626 23.3406 5.82417 23.8808 5.43956L24.0699 5.98901C23.5297 6.34615 22.9894 6.75824 22.4491 7.17033ZM58.8373 7.69231C58.324 7.25275 57.8108 6.84066 57.2975 6.45605L57.5406 5.93406C58.0539 6.31868 58.5942 6.75824 59.1075 7.1978L58.8373 7.69231ZM25.7448 4.89011L25.5827 4.34066C26.15 3.98351 26.7444 3.68132 27.3117 3.37912L27.4467 3.95604C26.8794 4.23077 26.3121 4.56044 25.7448 4.89011ZM55.7307 5.32967C55.1904 4.97253 54.6501 4.64286 54.1098 4.31319L54.2989 3.76374C54.8662 4.09341 55.4065 4.42308 55.9468 4.78022L55.7307 5.32967ZM29.2027 3.10439L29.0676 2.52747C29.6619 2.25275 30.2562 2.00549 30.8505 1.78571L30.9586 2.36264C30.3643 2.58242 29.77 2.82967 29.2027 3.10439ZM52.4349 3.43407C51.8676 3.15934 51.3003 2.88461 50.733 2.66483L50.8681 2.08791C51.4354 2.33516 52.0297 2.58242 52.597 2.88462L52.4349 3.43407ZM32.7415 1.75824L32.6605 1.15385C33.2548 0.961538 33.8761 0.824174 34.4974 0.659339L34.5515 1.26373C33.9301 1.42857 33.3358 1.59341 32.7415 1.75824ZM48.9771 2.00549C48.4098 1.81318 47.8155 1.62088 47.2212 1.48352L47.3292 0.87912C47.9235 1.04396 48.5179 1.20879 49.1122 1.4011L48.9771 2.00549ZM36.3614 0.934064L36.3344 0.32967C36.9557 0.219779 37.5771 0.164834 38.1714 0.109888V0.714283C37.5771 0.769228 36.9557 0.851647 36.3614 0.934064ZM45.4382 1.07143C44.8439 0.961537 44.2496 0.879119 43.6283 0.796702L43.6823 0.192307C44.3036 0.274724 44.8979 0.357142 45.5193 0.467032L45.4382 1.07143ZM40.0084 0.604395V0C40.6297 0 41.251 -2.51559e-06 41.8453 0.02747L41.8183 0.631865C41.224 0.604392 40.6027 0.604395 40.0084 0.604395Z" fill="url(#paint0_radial_5205_5916)"/>
<path fill-rule="evenodd" clip-rule="evenodd" d="M3.29574 23.1868V13.7637C3.29574 13.7362 3.29574 13.7362 3.32275 13.7362H6.48342V10.3571H3.32275C3.29574 10.3571 3.29574 10.3571 3.29574 10.3296V5.7417H0V24.2857C0 25.6318 1.08057 26.7582 2.43128 26.7582H6.51043V23.4065H3.51185C3.37678 23.3791 3.29574 23.2966 3.29574 23.1868Z" fill="white"/>
<path fill-rule="evenodd" clip-rule="evenodd" d="M29.0133 23.2143V13.7913C29.0133 13.7638 29.0133 13.7638 29.0403 13.7638H32.201V10.3847H29.0403C29.0133 10.3847 29.0133 10.3847 29.0133 10.3572V5.76929H25.7175V24.3132C25.7175 25.6594 26.7981 26.7858 28.1488 26.7858H32.228V23.4341H29.2294C29.0943 23.4067 29.0133 23.3242 29.0133 23.2143Z" fill="white"/>
<path fill-rule="evenodd" clip-rule="evenodd" d="M54.2986 18.6263L48.9228 26.6208C48.8958 26.6758 48.8688 26.7307 48.9228 26.8131C48.9498 26.8681 49.0038 26.8956 49.0849 26.8956H52.8669L56.2707 21.8131C56.2977 21.7582 56.3787 21.7307 56.4328 21.7307C56.5138 21.7307 56.5678 21.7582 56.5948 21.8131L59.9986 26.8956H63.7806C63.8347 26.8956 63.8887 26.8681 63.9427 26.8131C63.9697 26.7582 63.9697 26.7033 63.9427 26.6208L58.5399 18.5164V18.489L63.9427 10.3846C63.9697 10.3296 63.9967 10.2747 63.9427 10.1923C63.9157 10.1373 63.8617 10.1099 63.7806 10.1099H59.9986L56.5948 15.1923C56.5678 15.2472 56.4868 15.2747 56.4328 15.2747C56.3517 15.2747 56.2977 15.2472 56.2707 15.1923L52.8669 10.1373H49.0849C49.0309 10.1373 48.9768 10.1648 48.9228 10.2198C48.8958 10.2747 48.8958 10.3296 48.9228 10.4121L54.2716 18.4066C54.3256 18.4615 54.3256 18.5714 54.2986 18.6263Z" fill="#CB0E16"/>
<path fill-rule="evenodd" clip-rule="evenodd" d="M14.1552 10.2472C9.99498 10.7692 6.86133 14.3681 6.86133 18.6263C6.86133 22.8846 9.99498 26.4835 14.1552 27.0054C14.5064 27.0604 14.8305 27.0604 15.1817 27.0604C15.5329 27.0604 15.8571 27.0329 16.2083 27.0054C16.9917 26.8956 17.7481 26.7033 18.4775 26.3736V22.8022C18.4775 22.7472 18.4504 22.6923 18.3964 22.6373C18.3424 22.6098 18.2613 22.6098 18.2343 22.6648C17.586 23.1593 16.8296 23.489 16.0192 23.6263C15.749 23.6813 15.4789 23.7087 15.1817 23.7087C14.9116 23.7087 14.6144 23.6813 14.3443 23.6263H14.2632C11.886 23.1868 10.1571 21.0714 10.1571 18.5989C10.1571 16.0989 11.94 13.9835 14.3443 13.5714C14.6144 13.5164 14.8846 13.489 15.1817 13.489C15.4519 13.489 15.749 13.5164 16.0192 13.5714H16.0732C18.4504 14.0109 20.2064 16.1263 20.2064 18.5989V26.7857H23.5021V18.5989C23.5021 14.3406 20.3685 10.7417 16.2083 10.2197C15.8571 10.1648 15.5329 10.1648 15.1817 10.1648C14.8575 10.1648 14.5064 10.1923 14.1552 10.2472Z" fill="white"/>
<path fill-rule="evenodd" clip-rule="evenodd" d="M44.6543 22.1703C44.114 22.7197 43.4657 23.1318 42.7363 23.3791C42.7093 23.3791 42.7093 23.3791 42.6823 23.4066C42.196 23.5714 41.6557 23.6538 41.0885 23.6538C39.9268 23.6538 38.8463 23.2417 37.9548 22.5549C37.3065 22.0329 36.7662 21.3186 36.442 20.5219C36.442 20.5219 36.442 20.5219 36.442 20.4945C36.1989 19.8901 36.0638 19.2582 36.0638 18.5714C36.0638 17.8846 36.1989 17.2252 36.442 16.6483C36.442 16.6483 36.442 16.6483 36.442 16.6209C36.7662 15.8241 37.2794 15.1099 37.9278 14.5879C38.7922 13.8736 39.8728 13.4615 41.0614 13.4615C42.223 13.4615 43.3306 13.8736 44.1951 14.5879C44.8434 15.1099 45.3567 15.7967 45.6809 16.6209C45.6809 16.6209 45.6809 16.6209 45.6809 16.6483C45.7079 16.7307 45.7349 16.8132 45.7619 16.8956H41.7638H38.0358H37.7657C37.5766 17.4176 37.4956 17.9945 37.4956 18.5714C37.4956 19.1483 37.6036 19.7252 37.7657 20.2472H38.0358H39.9539H45.7619H46.3022H49.2197L49.3008 19.6154C49.3548 19.2582 49.3548 18.9285 49.3548 18.5714C49.3548 18.2143 49.3278 17.8846 49.3008 17.5274C48.7875 13.2967 45.2486 10.1099 41.0614 10.1099C36.8742 10.1099 33.3354 13.2967 32.8221 17.5274C32.7681 17.8846 32.7681 18.2143 32.7681 18.5714C32.7681 18.9285 32.7951 19.2582 32.8221 19.6154C33.4164 24.5604 38.1979 28.0769 43.2766 26.7307C44.7084 26.3461 45.978 25.5494 47.0046 24.5055L47.4638 24.0384L45.1406 21.6758L44.6543 22.1703Z" fill="#CB0E16"/>
<path fill-rule="evenodd" clip-rule="evenodd" d="M76.3691 15.9889V5.90654C76.3691 5.82412 76.288 5.7417 76.207 5.7417H73.2624C73.1814 5.7417 73.1003 5.82412 73.1003 5.90654V26.7307C73.1003 26.8131 73.1814 26.8955 73.2624 26.8955H76.207C76.288 26.8955 76.3691 26.8131 76.3691 26.7307V21.5109C76.3691 21.4285 76.4231 21.3461 76.5041 21.3186C76.5852 21.2911 76.6662 21.3186 76.7203 21.3736L80.8534 26.6208L81.0155 26.8131C81.0425 26.8681 81.0966 26.8681 81.1506 26.8681H84.9866C85.0407 26.8681 85.0947 26.8406 85.1487 26.7582C85.1757 26.7032 85.1757 26.6208 85.1217 26.5659L79.1515 18.7087C79.0975 18.6263 79.0975 18.5439 79.1515 18.4615L85.1217 10.6043C85.1757 10.5494 85.1757 10.4944 85.1487 10.412C85.1217 10.3571 85.0677 10.3021 84.9866 10.3021H81.1506C81.0966 10.3021 81.0425 10.3296 81.0155 10.3571L76.7203 15.9889C76.6662 16.0439 76.5852 16.0714 76.5041 16.0439C76.4231 16.1538 76.3691 16.0714 76.3691 15.9889Z" fill="white"/>
<path fill-rule="evenodd" clip-rule="evenodd" d="M92.5778 23.1868L99.9797 10.6594C100.007 10.6044 100.007 10.5495 99.9797 10.4945C99.9527 10.4396 99.8987 10.4121 99.8446 10.4121H87.337C87.256 10.4121 87.1749 10.4945 87.1749 10.5769V13.6264C87.1749 13.7088 87.229 13.7912 87.337 13.7912H94.2257C94.2797 13.7912 94.3607 13.8187 94.3878 13.9011C94.4148 13.9561 94.4148 14.0385 94.3878 14.0934L86.9858 26.6209C86.9588 26.6758 86.9588 26.7308 86.9858 26.7857C87.0129 26.8407 87.0669 26.8682 87.1209 26.8682H99.6285C99.7096 26.8682 99.7906 26.7857 99.7906 26.7033V23.6539C99.7906 23.5715 99.7366 23.489 99.6285 23.489H92.7129C92.6588 23.489 92.5778 23.4616 92.5508 23.3791C92.5238 23.3242 92.5508 23.2693 92.5778 23.1868Z" fill="white"/>
<path fill-rule="evenodd" clip-rule="evenodd" d="M71.1554 26.3186C71.1554 26.6208 70.1288 26.8406 68.562 26.8406C66.2658 26.8406 65.6985 26.5933 65.6985 26.3186C65.6985 26.0164 66.9952 25.7966 68.562 25.7966C70.1558 25.7966 71.1554 26.0439 71.1554 26.3186Z" fill="white"/>
<defs>
<radialGradient id="paint0_radial_5205_5916" cx="0" cy="0" r="1" gradientUnits="userSpaceOnUse" gradientTransform="translate(38.7298 21.0598) rotate(-5.6184) scale(25.7328 28.4611)">
<stop offset="0.1475" stop-opacity="0.9"/>
<stop offset="0.8721" stop-color="#f80040"/>
<stop offset="0.8855" stop-color="#f80040"/>
<stop offset="0.9407" stop-color="#f80040"/>
<stop offset="0.9802" stop-color="#f80040"/>
<stop offset="1" stop-color="#71001d"/>
</radialGradient>
</defs>
</svg>
