<svg width="13" height="13" viewBox="0 0 13 13" fill="none" xmlns="http://www.w3.org/2000/svg">
<path fill-rule="evenodd" clip-rule="evenodd" d="M1.71102 1.37222C2.46407 0.619179 3.70949 0.70769 4.34846 1.55966L5.40912 2.97387C5.93165 3.67058 5.86237 4.6455 5.24656 5.26131L4.46456 6.0433C4.54035 6.24056 4.78983 6.67345 5.54956 7.43318C6.30929 8.19291 6.74218 8.44239 6.93944 8.51818L7.72143 7.73618C8.33724 7.12037 9.31216 7.05108 10.0089 7.57362L11.4231 8.63428C12.2751 9.27326 12.3636 10.5187 11.6105 11.2717C11.3657 11.5165 11.3243 11.558 10.9157 11.9665C10.4993 12.3829 9.61518 12.7721 8.72005 12.811C7.31928 12.8719 5.41658 12.2499 3.07469 9.90805C0.732794 7.56616 0.110808 5.66346 0.171711 4.26269C0.20559 3.48347 0.453327 2.62764 1.01947 2.07029C1.42477 1.65847 1.47748 1.60577 1.71102 1.37222ZM1.33728 4.31336C1.29506 5.28435 1.70427 6.88772 3.89965 9.08309C6.09502 11.2785 7.69839 11.6877 8.66938 11.6455C9.57579 11.6061 10.062 11.1681 10.0907 11.1416L10.7856 10.4468C11.0366 10.1957 11.0071 9.7806 10.7231 9.56761L9.30887 8.50695C9.07663 8.33277 8.75166 8.35587 8.54639 8.56114C8.23712 8.87041 8.026 9.08466 7.61274 9.49635C6.75429 10.3516 5.28483 8.81836 4.7246 8.25814C4.20977 7.7433 2.6408 6.22718 3.48555 5.37241C3.48722 5.37073 3.71475 5.1432 4.4216 4.43635C4.62687 4.23108 4.64996 3.90611 4.47579 3.67387L3.41513 2.25966C3.20214 1.97567 2.787 1.94617 2.53598 2.19718C2.30495 2.42821 2.04349 2.68967 1.84187 2.89269C1.4269 3.31052 1.35948 3.8026 1.33728 4.31336Z" fill="#fff"/>
</svg>
